<svg width="300" height="100" viewBox="0 0 300 100" fill="none" xmlns="http://www.w3.org/2000/svg">
<g clip-path="url(#clip0_3_2)">
<circle cx="84" cy="50" r="45" fill="white"/>
<path d="M15.6797 47.8203C15.6797 44.8047 16.7578 42.7734 18.9141 41.7266C21.0703 40.6797 23.375 40.1562 25.8281 40.1562C27.4219 40.1562 29 40.4922 30.5625 41.1641C32.125 41.8203 33.1953 42.6641 33.7734 43.6953L33.7969 41.7031C33.7969 41.2188 33.9688 40.8359 34.3125 40.5547C34.6562 40.2578 35.0703 40.1094 35.5547 40.1094C36.2422 40.1094 36.7578 40.2656 37.1016 40.5781C37.4453 40.8906 37.6172 41.3438 37.6172 41.9375L37.5234 48.7109C37.4609 49.2422 37.2578 49.6484 36.9141 49.9297C36.5703 50.1953 36.1328 50.3281 35.6016 50.3281C35.0859 50.3281 34.7422 50.1719 34.5703 49.8594C34.3984 49.5469 34.2344 49.1016 34.0781 48.5234C33.5469 46.8828 32.4453 45.625 30.7734 44.75C29.1172 43.875 27.4531 43.4375 25.7812 43.4375C24.3438 43.4375 23.0859 43.7188 22.0078 44.2812C20.9297 44.8438 20.3906 45.6953 20.3906 46.8359C20.3906 47.8203 20.7109 48.5859 21.3516 49.1328C21.9922 49.6797 23.0312 50.1328 24.4688 50.4922L30.4688 52.4609C32.5625 53.1641 34.4609 54.0547 36.1641 55.1328C37.8672 56.2109 38.7188 58.0703 38.7188 60.7109C38.7188 63.3047 37.8281 65.2734 36.0469 66.6172C34.2812 67.9609 31.7969 68.6328 28.5938 68.6328C26.9219 68.6328 25.0859 68.3672 23.0859 67.8359C21.0859 67.2891 19.6406 66.5234 18.75 65.5391C18.75 66.5703 18.5625 67.2422 18.1875 67.5547C17.8281 67.8516 17.3828 68 16.8516 68C16.2578 68 15.7578 67.8672 15.3516 67.6016C14.9609 67.3359 14.7656 66.8906 14.7656 66.2656V58.3438C14.7812 57.8594 14.9688 57.4922 15.3281 57.2422C15.6875 56.9922 16.0938 56.8672 16.5469 56.8672C17.2344 56.8672 17.7109 57.0312 17.9766 57.3594C18.2578 57.6719 18.4688 58.1328 18.6094 58.7422C19.0938 60.8672 20.2109 62.4609 21.9609 63.5234C23.7109 64.5859 25.8359 65.1172 28.3359 65.1172C29.8516 65.1172 31.1484 64.8281 32.2266 64.25C33.3203 63.6719 33.8672 62.7266 33.8672 61.4141C33.8672 60.1016 33.5547 59.1406 32.9297 58.5312C32.3047 57.9219 31.1953 57.375 29.6016 56.8906L23.2266 54.8984C21.2422 54.2734 19.4844 53.4453 17.9531 52.4141C16.4375 51.3828 15.6797 49.8516 15.6797 47.8203ZM140.906 64.8594C142.406 64.8594 143.375 64.4375 143.812 63.5938C144.25 62.75 144.914 62.3281 145.805 62.3281C146.289 62.3281 146.688 62.5078 147 62.8672C147.328 63.2109 147.492 63.625 147.492 64.1094C147.492 65.5 146.656 66.6016 144.984 67.4141C143.312 68.2266 141.688 68.6328 140.109 68.6328C138.281 68.6328 136.68 67.9922 135.305 66.7109C133.93 65.4141 133.242 63.9062 133.242 62.1875V45.5938H129.727C129.07 45.5938 128.586 45.4062 128.273 45.0312C127.961 44.6562 127.805 44.1719 127.805 43.5781C127.805 43 127.945 42.5 128.227 42.0781C128.523 41.6562 128.977 41.4453 129.586 41.4453H133.242C133.242 40.0234 133.367 38.125 133.617 35.75C133.867 33.375 134.664 32.1875 136.008 32.1875C136.398 32.1875 136.734 32.2344 137.016 32.3281C137.312 32.4219 137.602 32.5703 137.883 32.7734V33.2422C137.883 33.4453 137.891 33.6797 137.906 33.9453C137.922 34.1953 137.93 34.4219 137.93 34.625V41.4453H144.07C144.664 41.4453 145.094 41.6641 145.359 42.1016C145.625 42.5391 145.758 43.0469 145.758 43.625C145.758 44.1406 145.602 44.6016 145.289 45.0078C144.992 45.3984 144.57 45.5938 144.023 45.5938H137.93V61.4609C137.93 62.6797 138.211 63.5547 138.773 64.0859C139.336 64.6016 140.047 64.8594 140.906 64.8594ZM165.656 40.1562C168.016 40.1562 170.281 40.6406 172.453 41.6094C174.641 42.5625 175.734 44.5 175.734 47.4219C175.734 48.3438 175.555 49.125 175.195 49.7656C174.836 50.3906 174.258 50.7031 173.461 50.7031C172.289 50.7031 171.539 50.0234 171.211 48.6641C170.883 47.2891 170.57 45.9766 170.273 44.7266C169.508 44.5234 168.75 44.375 168 44.2812C167.266 44.1875 166.539 44.1406 165.82 44.1406C162.805 44.1406 160.281 45.0234 158.25 46.7891C156.219 48.5391 155.203 50.9531 155.203 54.0312C155.203 57.3594 156.195 59.8438 158.18 61.4844C160.18 63.1094 162.453 63.9219 165 63.9219C166.328 63.9219 167.664 63.6719 169.008 63.1719C170.352 62.6562 171.578 61.9062 172.688 60.9219C172.906 60.7344 173.141 60.5859 173.391 60.4766C173.641 60.3672 173.898 60.3125 174.164 60.3125C174.805 60.3125 175.336 60.4766 175.758 60.8047C176.195 61.1172 176.414 61.5625 176.414 62.1406C176.414 64.1406 175.07 65.7188 172.383 66.875C169.695 68.0156 167.328 68.5859 165.281 68.5859C160.797 68.5859 157.125 67.2969 154.266 64.7188C151.422 62.125 150 58.5625 150 54.0312C150 49.5938 151.555 46.1719 154.664 43.7656C157.789 41.3594 161.453 40.1562 165.656 40.1562ZM197.414 44.1406C195.633 44.1406 194.047 44.6797 192.656 45.7578C191.281 46.8203 190.195 47.9922 189.398 49.2734V63.875H193.242C193.852 63.875 194.242 64.0859 194.414 64.5078C194.586 64.9141 194.672 65.4062 194.672 65.9844C194.672 66.4531 194.547 66.9062 194.297 67.3438C194.047 67.7812 193.68 68 193.195 68H181.734C181.062 68 180.594 67.8281 180.328 67.4844C180.078 67.125 179.953 66.6406 179.953 66.0312C179.953 65.4531 180.07 64.9531 180.305 64.5312C180.539 64.0938 180.961 63.875 181.57 63.875H184.594V32.2812L179.086 33.7344C179.023 33.7344 178.984 33.7422 178.969 33.7578C178.953 33.7734 178.914 33.7812 178.852 33.7812C178.367 33.7812 177.938 33.5703 177.562 33.1484C177.172 32.7109 176.977 32.25 176.977 31.7656C176.977 31.0938 177.156 30.6562 177.516 30.4531C177.859 30.2344 178.289 30.0469 178.805 29.8906L187.828 27.2891C187.859 27.2734 187.898 27.2656 187.945 27.2656C188.008 27.25 188.078 27.2422 188.156 27.2422C188.484 27.2422 188.773 27.3516 189.023 27.5703C189.273 27.7734 189.398 28.0469 189.398 28.3906V44.4688C190.305 43.3906 191.531 42.4062 193.078 41.5156C194.625 40.6094 196.359 40.1562 198.281 40.1562C201.203 40.1562 203.523 41.0156 205.242 42.7344C206.977 44.4531 207.844 46.7812 207.844 49.7188V63.875H211.664C212.273 63.875 212.664 64.0859 212.836 64.5078C213.023 64.9141 213.117 65.4062 213.117 65.9844C213.117 66.4531 212.984 66.9062 212.719 67.3438C212.469 67.7812 212.102 68 211.617 68H200.156C199.484 68 199.016 67.8281 198.75 67.4844C198.5 67.125 198.375 66.6406 198.375 66.0312C198.375 65.4531 198.492 64.9531 198.727 64.5312C198.977 64.0938 199.406 63.875 200.016 63.875H203.086V50.1406C203.086 48.2812 202.609 46.8203 201.656 45.7578C200.719 44.6797 199.305 44.1406 197.414 44.1406ZM223.5 34.5547C222.516 34.5547 221.672 34.2109 220.969 33.5234C220.281 32.8203 219.938 31.9766 219.938 30.9922C219.938 30.0078 220.281 29.1719 220.969 28.4844C221.672 27.7812 222.516 27.4297 223.5 27.4297C224.484 27.4297 225.32 27.7812 226.008 28.4844C226.695 29.1719 227.039 30.0078 227.039 30.9922C227.039 31.9766 226.695 32.8203 226.008 33.5234C225.32 34.2109 224.484 34.5547 223.5 34.5547ZM216.281 66.0547C216.281 65.4766 216.422 64.9844 216.703 64.5781C217 64.1562 217.453 63.9453 218.062 63.9453H221.273V44.9609L217.922 45.875C217.891 45.8906 217.844 45.9062 217.781 45.9219C217.734 45.9219 217.672 45.9219 217.594 45.9219C217.125 45.9219 216.688 45.7344 216.281 45.3594C215.875 44.9688 215.672 44.5312 215.672 44.0469C215.672 43.5469 215.781 43.125 216 42.7812C216.234 42.4219 216.57 42.1875 217.008 42.0781L224.508 40.2031C224.555 40.1875 224.609 40.1797 224.672 40.1797C224.734 40.1641 224.805 40.1562 224.883 40.1562C225.227 40.1562 225.508 40.2578 225.727 40.4609C225.961 40.6484 226.078 40.9141 226.078 41.2578V63.9453H229.688C230.281 63.9453 230.711 64.1641 230.977 64.6016C231.242 65.0234 231.375 65.5234 231.375 66.1016C231.375 66.6172 231.219 67.0625 230.906 67.4375C230.609 67.8125 230.188 68 229.641 68H218.203C217.547 68 217.062 67.8281 216.75 67.4844C216.438 67.125 216.281 66.6484 216.281 66.0547ZM254.062 34.9297C253.484 34.9297 252.984 34.7891 252.562 34.5078C252.141 34.2109 251.93 33.7578 251.93 33.1484V31.5312C249.445 31.75 247.758 32.4375 246.867 33.5938C245.977 34.75 245.531 36.6016 245.531 39.1484C245.531 39.3047 245.531 39.4609 245.531 39.6172C245.547 39.7734 245.555 39.9297 245.555 40.0859L245.602 41.7031H250.734C251.328 41.7031 251.758 41.9219 252.023 42.3594C252.289 42.7812 252.422 43.2812 252.422 43.8594C252.422 44.375 252.266 44.8359 251.953 45.2422C251.656 45.6328 251.234 45.8281 250.688 45.8281H245.555L245.602 63.875H251.508C252.102 63.875 252.531 64.0938 252.797 64.5312C253.062 64.9531 253.195 65.4531 253.195 66.0312C253.195 66.5469 253.039 67.0078 252.727 67.4141C252.43 67.8047 252.008 68 251.461 68H235.758C235.102 68 234.617 67.8125 234.305 67.4375C233.992 67.0625 233.836 66.5781 233.836 65.9844C233.836 65.4062 233.977 64.9141 234.258 64.5078C234.555 64.0859 235.008 63.875 235.617 63.875H240.797V45.8281H236.625C235.969 45.8281 235.484 45.6406 235.172 45.2656C234.859 44.8906 234.703 44.4062 234.703 43.8125C234.703 43.2344 234.844 42.7422 235.125 42.3359C235.422 41.9141 235.875 41.7031 236.484 41.7031H240.797V39.2422C240.797 35.1328 241.969 32.1094 244.312 30.1719C246.656 28.2188 249.922 27.2422 254.109 27.2422C254.625 27.2422 255.078 27.3984 255.469 27.7109C255.875 28.0078 256.078 28.4297 256.078 28.9766V33.0078C256.078 33.6641 255.891 34.1484 255.516 34.4609C255.141 34.7734 254.656 34.9297 254.062 34.9297ZM270.797 43.4141C270.797 43.9922 270.664 44.5 270.398 44.9375C270.133 45.375 269.703 45.5938 269.109 45.5938H266.297L274.453 63.1016L280.922 45.5938H278.203C277.609 45.5938 277.18 45.375 276.914 44.9375C276.648 44.5 276.516 43.9922 276.516 43.4141C276.516 42.8984 276.664 42.4453 276.961 42.0547C277.273 41.6484 277.703 41.4453 278.25 41.4453H287.695C288.367 41.4453 288.852 41.6328 289.148 42.0078C289.461 42.3828 289.617 42.8672 289.617 43.4609C289.617 44.0391 289.469 44.5391 289.172 44.9609C288.891 45.3828 288.445 45.5938 287.836 45.5938H285.094L275.367 70.8359C274.523 72.8203 273.383 75.1484 271.945 77.8203C270.523 80.4922 268.336 81.8281 265.383 81.8281C264.445 81.8281 263.711 81.5703 263.18 81.0547C262.664 80.5391 262.406 79.9688 262.406 79.3438C262.406 78.7656 262.602 78.1719 262.992 77.5625C263.398 76.9531 264.102 76.6406 265.102 76.625C266.414 76.625 267.547 76.1484 268.5 75.1953C269.453 74.2422 270.188 73.1406 270.703 71.8906L272.203 68.1406C272.125 68.1406 271.922 67.8281 271.594 67.2031C271.281 66.5625 271.094 66.1719 271.031 66.0312L261 45.5938H258.164C257.555 45.5938 257.109 45.3828 256.828 44.9609C256.547 44.5391 256.406 44.0391 256.406 43.4609C256.406 42.8672 256.562 42.3828 256.875 42.0078C257.188 41.6328 257.672 41.4453 258.328 41.4453H269.062C269.609 41.4453 270.031 41.6484 270.328 42.0547C270.641 42.4453 270.797 42.8984 270.797 43.4141Z" fill="white"/>
<path d="M58.2188 40.1562C60.5781 40.1562 62.8438 40.6406 65.0156 41.6094C67.2031 42.5625 68.2969 44.5 68.2969 47.4219C68.2969 48.3438 68.1172 49.125 67.7578 49.7656C67.3984 50.3906 66.8203 50.7031 66.0234 50.7031C64.8516 50.7031 64.1016 50.0234 63.7734 48.6641C63.4453 47.2891 63.1328 45.9766 62.8359 44.7266C62.0703 44.5234 61.3125 44.375 60.5625 44.2812C59.8281 44.1875 59.1016 44.1406 58.3828 44.1406C55.3672 44.1406 52.8438 45.0234 50.8125 46.7891C48.7812 48.5391 47.7656 50.9531 47.7656 54.0312C47.7656 57.3594 48.7578 59.8438 50.7422 61.4844C52.7422 63.1094 55.0156 63.9219 57.5625 63.9219C58.8906 63.9219 60.2266 63.6719 61.5703 63.1719C62.9141 62.6562 64.1406 61.9062 65.25 60.9219C65.4688 60.7344 65.7031 60.5859 65.9531 60.4766C66.2031 60.3672 66.4609 60.3125 66.7266 60.3125C67.3672 60.3125 67.8984 60.4766 68.3203 60.8047C68.7578 61.1172 68.9766 61.5625 68.9766 62.1406C68.9766 64.1406 67.6328 65.7188 64.9453 66.875C62.2578 68.0156 59.8906 68.5859 57.8438 68.5859C53.3594 68.5859 49.6875 67.2969 46.8281 64.7188C43.9844 62.125 42.5625 58.5625 42.5625 54.0312C42.5625 49.5938 44.1172 46.1719 47.2266 43.7656C50.3516 41.3594 54.0156 40.1562 58.2188 40.1562ZM90.9844 44.4219C89.1094 44.4219 87.4375 44.8359 85.9688 45.6641C84.5 46.4922 83.3828 47.4766 82.6172 48.6172V63.875H88.8984C89.4922 63.875 89.9219 64.0938 90.1875 64.5312C90.4531 64.9531 90.5859 65.4531 90.5859 66.0312C90.5859 66.5469 90.4297 67.0078 90.1172 67.4141C89.8203 67.8047 89.3984 68 88.8516 68H73.3594C72.7031 68 72.2188 67.8125 71.9062 67.4375C71.5938 67.0625 71.4375 66.5781 71.4375 65.9844C71.4375 65.4062 71.5781 64.9141 71.8594 64.5078C72.1562 64.0859 72.6094 63.875 73.2188 63.875H77.8125V45.0547L74.4609 45.875C74.4297 45.8906 74.3828 45.9062 74.3203 45.9219C74.2734 45.9219 74.2109 45.9219 74.1328 45.9219C73.6641 45.9219 73.2266 45.7344 72.8203 45.3594C72.4141 44.9688 72.2109 44.5312 72.2109 44.0469C72.2109 43.5156 72.3203 43.0938 72.5391 42.7812C72.7734 42.4531 73.1094 42.2188 73.5469 42.0781L80.0859 40.2031C80.1484 40.2031 80.1875 40.1953 80.2031 40.1797C80.2188 40.1641 80.2578 40.1562 80.3203 40.1562H80.4609C80.7891 40.1562 81.0703 40.2578 81.3047 40.4609C81.5391 40.6484 81.6562 40.9141 81.6562 41.2578L82.1484 45.6875C83.2266 44.0469 84.6406 42.7188 86.3906 41.7031C88.1562 40.6719 90.4062 40.1562 93.1406 40.1562C93.6562 40.1562 94.1094 40.3125 94.5 40.625C94.9062 40.9219 95.1094 41.3438 95.1094 41.8906V46.8828C95.1094 47.5391 94.9219 48.0234 94.5469 48.3359C94.1719 48.6484 93.6875 48.8047 93.0938 48.8047C92.5156 48.8047 92.0156 48.6641 91.5938 48.3828C91.1875 48.0859 90.9844 47.6328 90.9844 47.0234V44.4219ZM127.852 64.0625C127.852 65.3125 127.023 66.3828 125.367 67.2734C123.711 68.1484 122.352 68.5859 121.289 68.5859C120.008 68.5859 118.977 68.2734 118.195 67.6484C117.414 67.0234 116.883 66.0703 116.602 64.7891C115.461 66.1016 113.969 67.0781 112.125 67.7188C110.281 68.3438 108.312 68.6562 106.219 68.6562C103.828 68.6562 101.828 67.9297 100.219 66.4766C98.625 65.0234 97.8281 63.1328 97.8281 60.8047C97.8281 56.6172 99.875 54.0547 103.969 53.1172C108.062 52.1797 112.062 51.5391 115.969 51.1953V47.3984C115.969 46.1797 115.445 45.3359 114.398 44.8672C113.352 44.3828 112.227 44.1406 111.023 44.1406C108.836 44.1406 107.172 44.375 106.031 44.8438C104.906 45.3125 103.594 46.0234 102.094 46.9766C101.953 47.0547 101.812 47.1172 101.672 47.1641C101.547 47.2109 101.414 47.2344 101.273 47.2344C100.742 47.2344 100.266 46.9844 99.8438 46.4844C99.4219 45.9844 99.2109 45.4609 99.2109 44.9141C99.2109 43.0391 100.578 41.7812 103.312 41.1406C106.062 40.4844 108.406 40.1562 110.344 40.1562C114.297 40.1562 117 41 118.453 42.6875C119.906 44.3594 120.633 47.1484 120.633 51.0547V62.8672C120.633 63.3516 120.711 63.7578 120.867 64.0859C121.039 64.3984 121.305 64.5547 121.664 64.5547C122.367 64.5547 123.156 64.1328 124.031 63.2891C124.906 62.4453 125.625 62.0234 126.188 62.0234C126.531 62.0234 126.891 62.2578 127.266 62.7266C127.656 63.1797 127.852 63.625 127.852 64.0625ZM115.969 54.7109C113.5 54.9766 110.695 55.3828 107.555 55.9297C104.43 56.4609 102.867 58.0391 102.867 60.6641C102.867 61.9922 103.359 62.9844 104.344 63.6406C105.328 64.2812 106.5 64.6016 107.859 64.6016C109.484 64.6016 110.969 64.3047 112.312 63.7109C113.672 63.1016 114.891 62.375 115.969 61.5312V54.7109Z" fill="#F47B55"/>
<rect x="216" y="84" width="73" height="3" fill="white"/>
</g>
<defs>
<clipPath id="clip0_3_2">
<rect width="300" height="100" fill="white"/>
</clipPath>
</defs>
</svg>
