<svg width="100" height="100" viewBox="0 0 100 100" fill="none" xmlns="http://www.w3.org/2000/svg">
<g clip-path="url(#clip0_1_2)">
<rect width="100" height="100" rx="8" fill="#F47B55"/>
<circle cx="50" cy="50" r="48" fill="white"/>
<path d="M88.9256 52.6867C93.6994 72.3916 75.2973 72.7252 57.1613 77.7899C38.5931 81.0706 24.4619 88.1341 19.688 68.4291C46.382 62.3598 35.4614 64.8428 53.8897 60.6528C72.3181 56.4627 35.5376 64.8254 88.9256 52.6867Z" fill="#F47B55"/>
<path d="M-26.0096 56.991C-25.7469 55.501 -24.2969 54.6212 -22.8461 55.0714L21.4045 68.8029C21.9285 68.9655 22.2891 69.4787 22.2662 70.0292V70.0292C22.2371 70.7289 21.6105 71.2062 20.9354 71.0428L-23.9178 60.188C-25.3244 59.8475 -26.2609 58.4162 -26.0096 56.991V56.991Z" fill="#F47B55"/>
<path d="M26.8151 68.7624C25.5222 66.5221 24.281 60.588 27.451 53.7183C34.2857 38.9074 27.6102 64.0691 37.5551 65.8066C40.7698 66.3682 34.3745 48.8908 38.8446 42.7491C45.4345 33.6947 36.7506 67.2584 55.7498 62.0044" stroke="#F47B55" stroke-width="2"/>
<path d="M53.0614 62.8128C52.0562 61.6229 51.5103 58.2281 55.3449 53.785C63.6122 44.2058 54.3523 59.9299 63.8014 59.8569C66.8559 59.8333 62.5922 50.1398 67.6064 45.9855C74.9986 39.8608 62.8606 60.8109 81.8626 55.567" stroke="#F47B55" stroke-width="2"/>
<path d="M15.9199 28.9551C15.9199 28.2012 16.1895 27.6934 16.7285 27.4316C17.2676 27.1699 17.8438 27.0391 18.457 27.0391C18.8555 27.0391 19.25 27.123 19.6406 27.291C20.0312 27.4551 20.2988 27.666 20.4434 27.9238L20.4492 27.4258C20.4492 27.3047 20.4922 27.209 20.5781 27.1387C20.6641 27.0645 20.7676 27.0273 20.8887 27.0273C21.0605 27.0273 21.1895 27.0664 21.2754 27.1445C21.3613 27.2227 21.4043 27.3359 21.4043 27.4844L21.3809 29.1777C21.3652 29.3105 21.3145 29.4121 21.2285 29.4824C21.1426 29.5488 21.0332 29.582 20.9004 29.582C20.7715 29.582 20.6855 29.543 20.6426 29.4648C20.5996 29.3867 20.5586 29.2754 20.5195 29.1309C20.3867 28.7207 20.1113 28.4062 19.6934 28.1875C19.2793 27.9688 18.8633 27.8594 18.4453 27.8594C18.0859 27.8594 17.7715 27.9297 17.502 28.0703C17.2324 28.2109 17.0977 28.4238 17.0977 28.709C17.0977 28.9551 17.1777 29.1465 17.3379 29.2832C17.498 29.4199 17.7578 29.5332 18.1172 29.623L19.6172 30.1152C20.1406 30.291 20.6152 30.5137 21.041 30.7832C21.4668 31.0527 21.6797 31.5176 21.6797 32.1777C21.6797 32.8262 21.457 33.3184 21.0117 33.6543C20.5703 33.9902 19.9492 34.1582 19.1484 34.1582C18.7305 34.1582 18.2715 34.0918 17.7715 33.959C17.2715 33.8223 16.9102 33.6309 16.6875 33.3848C16.6875 33.6426 16.6406 33.8105 16.5469 33.8887C16.457 33.9629 16.3457 34 16.2129 34C16.0645 34 15.9395 33.9668 15.8379 33.9004C15.7402 33.834 15.6914 33.7227 15.6914 33.5664V31.5859C15.6953 31.4648 15.7422 31.373 15.832 31.3105C15.9219 31.248 16.0234 31.2168 16.1367 31.2168C16.3086 31.2168 16.4277 31.2578 16.4941 31.3398C16.5645 31.418 16.6172 31.5332 16.6523 31.6855C16.7734 32.2168 17.0527 32.6152 17.4902 32.8809C17.9277 33.1465 18.459 33.2793 19.084 33.2793C19.4629 33.2793 19.7871 33.207 20.0566 33.0625C20.3301 32.918 20.4668 32.6816 20.4668 32.3535C20.4668 32.0254 20.3887 31.7852 20.2324 31.6328C20.0762 31.4805 19.7988 31.3438 19.4004 31.2227L17.8066 30.7246C17.3105 30.5684 16.8711 30.3613 16.4883 30.1035C16.1094 29.8457 15.9199 29.4629 15.9199 28.9551ZM26.5547 27.0391C27.1445 27.0391 27.7109 27.1602 28.2539 27.4023C28.8008 27.6406 29.0742 28.125 29.0742 28.8555C29.0742 29.0859 29.0293 29.2812 28.9395 29.4414C28.8496 29.5977 28.7051 29.6758 28.5059 29.6758C28.2129 29.6758 28.0254 29.5059 27.9434 29.166C27.8613 28.8223 27.7832 28.4941 27.709 28.1816C27.5176 28.1309 27.3281 28.0938 27.1406 28.0703C26.957 28.0469 26.7754 28.0352 26.5957 28.0352C25.8418 28.0352 25.2109 28.2559 24.7031 28.6973C24.1953 29.1348 23.9414 29.7383 23.9414 30.5078C23.9414 31.3398 24.1895 31.9609 24.6855 32.3711C25.1855 32.7773 25.7539 32.9805 26.3906 32.9805C26.7227 32.9805 27.0566 32.918 27.3926 32.793C27.7285 32.6641 28.0352 32.4766 28.3125 32.2305C28.3672 32.1836 28.4258 32.1465 28.4883 32.1191C28.5508 32.0918 28.6152 32.0781 28.6816 32.0781C28.8418 32.0781 28.9746 32.1191 29.0801 32.2012C29.1895 32.2793 29.2441 32.3906 29.2441 32.5352C29.2441 33.0352 28.9082 33.4297 28.2363 33.7188C27.5645 34.0039 26.9727 34.1465 26.4609 34.1465C25.3398 34.1465 24.4219 33.8242 23.707 33.1797C22.9961 32.5312 22.6406 31.6406 22.6406 30.5078C22.6406 29.3984 23.0293 28.543 23.8066 27.9414C24.5879 27.3398 25.5039 27.0391 26.5547 27.0391ZM34.7461 28.1055C34.2773 28.1055 33.8594 28.209 33.4922 28.416C33.125 28.623 32.8457 28.8691 32.6543 29.1543V32.9688H34.2246C34.373 32.9688 34.4805 33.0234 34.5469 33.1328C34.6133 33.2383 34.6465 33.3633 34.6465 33.5078C34.6465 33.6367 34.6074 33.752 34.5293 33.8535C34.4551 33.9512 34.3496 34 34.2129 34H30.3398C30.1758 34 30.0547 33.9531 29.9766 33.8594C29.8984 33.7656 29.8594 33.6445 29.8594 33.4961C29.8594 33.3516 29.8945 33.2285 29.9648 33.127C30.0391 33.0215 30.1523 32.9688 30.3047 32.9688H31.4531V28.2637L30.6152 28.4688C30.6074 28.4727 30.5957 28.4766 30.5801 28.4805C30.5684 28.4805 30.5527 28.4805 30.5332 28.4805C30.416 28.4805 30.3066 28.4336 30.2051 28.3398C30.1035 28.2422 30.0527 28.1328 30.0527 28.0117C30.0527 27.8789 30.0801 27.7734 30.1348 27.6953C30.1934 27.6133 30.2773 27.5547 30.3867 27.5195L32.0215 27.0508C32.0371 27.0508 32.0469 27.0488 32.0508 27.0449C32.0547 27.041 32.0645 27.0391 32.0801 27.0391H32.1152C32.1973 27.0391 32.2676 27.0645 32.3262 27.1152C32.3848 27.1621 32.4141 27.2285 32.4141 27.3145L32.5371 28.4219C32.8066 28.0117 33.1602 27.6797 33.5977 27.4258C34.0391 27.168 34.6016 27.0391 35.2852 27.0391C35.4141 27.0391 35.5273 27.0781 35.625 27.1562C35.7266 27.2305 35.7773 27.3359 35.7773 27.4727V28.7207C35.7773 28.8848 35.7305 29.0059 35.6367 29.084C35.543 29.1621 35.4219 29.2012 35.2734 29.2012C35.1289 29.2012 35.0039 29.166 34.8984 29.0957C34.7969 29.0215 34.7461 28.9082 34.7461 28.7559V28.1055ZM43.9629 33.0156C43.9629 33.3281 43.7559 33.5957 43.3418 33.8184C42.9277 34.0371 42.5879 34.1465 42.3223 34.1465C42.002 34.1465 41.7441 34.0684 41.5488 33.9121C41.3535 33.7559 41.2207 33.5176 41.1504 33.1973C40.8652 33.5254 40.4922 33.7695 40.0312 33.9297C39.5703 34.0859 39.0781 34.1641 38.5547 34.1641C37.957 34.1641 37.457 33.9824 37.0547 33.6191C36.6562 33.2559 36.457 32.7832 36.457 32.2012C36.457 31.1543 36.9688 30.5137 37.9922 30.2793C39.0156 30.0449 40.0156 29.8848 40.9922 29.7988V28.8496C40.9922 28.5449 40.8613 28.334 40.5996 28.2168C40.3379 28.0957 40.0566 28.0352 39.7559 28.0352C39.209 28.0352 38.793 28.0938 38.5078 28.2109C38.2266 28.3281 37.8984 28.5059 37.5234 28.7441C37.4883 28.7637 37.4531 28.7793 37.418 28.791C37.3867 28.8027 37.3535 28.8086 37.3184 28.8086C37.1855 28.8086 37.0664 28.7461 36.9609 28.6211C36.8555 28.4961 36.8027 28.3652 36.8027 28.2285C36.8027 27.7598 37.1445 27.4453 37.8281 27.2852C38.5156 27.1211 39.1016 27.0391 39.5859 27.0391C40.5742 27.0391 41.25 27.25 41.6133 27.6719C41.9766 28.0898 42.1582 28.7871 42.1582 29.7637V32.7168C42.1582 32.8379 42.1777 32.9395 42.2168 33.0215C42.2598 33.0996 42.3262 33.1387 42.416 33.1387C42.5918 33.1387 42.7891 33.0332 43.0078 32.8223C43.2266 32.6113 43.4062 32.5059 43.5469 32.5059C43.6328 32.5059 43.7227 32.5645 43.8164 32.6816C43.9141 32.7949 43.9629 32.9062 43.9629 33.0156ZM40.9922 30.6777C40.375 30.7441 39.6738 30.8457 38.8887 30.9824C38.1074 31.1152 37.7168 31.5098 37.7168 32.166C37.7168 32.498 37.8398 32.7461 38.0859 32.9102C38.332 33.0703 38.625 33.1504 38.9648 33.1504C39.3711 33.1504 39.7422 33.0762 40.0781 32.9277C40.418 32.7754 40.7227 32.5938 40.9922 32.3828V30.6777ZM47.2266 33.2148C47.6016 33.2148 47.8438 33.1094 47.9531 32.8984C48.0625 32.6875 48.2285 32.582 48.4512 32.582C48.5723 32.582 48.6719 32.627 48.75 32.7168C48.832 32.8027 48.873 32.9062 48.873 33.0273C48.873 33.375 48.6641 33.6504 48.2461 33.8535C47.8281 34.0566 47.4219 34.1582 47.0273 34.1582C46.5703 34.1582 46.1699 33.998 45.8262 33.6777C45.4824 33.3535 45.3105 32.9766 45.3105 32.5469V28.3984H44.4316C44.2676 28.3984 44.1465 28.3516 44.0684 28.2578C43.9902 28.1641 43.9512 28.043 43.9512 27.8945C43.9512 27.75 43.9863 27.625 44.0566 27.5195C44.1309 27.4141 44.2441 27.3613 44.3965 27.3613H45.3105C45.3105 27.0059 45.3418 26.5312 45.4043 25.9375C45.4668 25.3438 45.666 25.0469 46.002 25.0469C46.0996 25.0469 46.1836 25.0586 46.2539 25.082C46.3281 25.1055 46.4004 25.1426 46.4707 25.1934V25.3105C46.4707 25.3613 46.4727 25.4199 46.4766 25.4863C46.4805 25.5488 46.4824 25.6055 46.4824 25.6562V27.3613H48.0176C48.166 27.3613 48.2734 27.416 48.3398 27.5254C48.4062 27.6348 48.4395 27.7617 48.4395 27.9062C48.4395 28.0352 48.4004 28.1504 48.3223 28.252C48.248 28.3496 48.1426 28.3984 48.0059 28.3984H46.4824V32.3652C46.4824 32.6699 46.5527 32.8887 46.6934 33.0215C46.834 33.1504 47.0117 33.2148 47.2266 33.2148ZM53.4141 27.0391C54.0039 27.0391 54.5703 27.1602 55.1133 27.4023C55.6602 27.6406 55.9336 28.125 55.9336 28.8555C55.9336 29.0859 55.8887 29.2812 55.7988 29.4414C55.709 29.5977 55.5645 29.6758 55.3652 29.6758C55.0723 29.6758 54.8848 29.5059 54.8027 29.166C54.7207 28.8223 54.6426 28.4941 54.5684 28.1816C54.377 28.1309 54.1875 28.0938 54 28.0703C53.8164 28.0469 53.6348 28.0352 53.4551 28.0352C52.7012 28.0352 52.0703 28.2559 51.5625 28.6973C51.0547 29.1348 50.8008 29.7383 50.8008 30.5078C50.8008 31.3398 51.0488 31.9609 51.5449 32.3711C52.0449 32.7773 52.6133 32.9805 53.25 32.9805C53.582 32.9805 53.916 32.918 54.252 32.793C54.5879 32.6641 54.8945 32.4766 55.1719 32.2305C55.2266 32.1836 55.2852 32.1465 55.3477 32.1191C55.4102 32.0918 55.4746 32.0781 55.541 32.0781C55.7012 32.0781 55.834 32.1191 55.9395 32.2012C56.0488 32.2793 56.1035 32.3906 56.1035 32.5352C56.1035 33.0352 55.7676 33.4297 55.0957 33.7188C54.4238 34.0039 53.832 34.1465 53.3203 34.1465C52.1992 34.1465 51.2812 33.8242 50.5664 33.1797C49.8555 32.5312 49.5 31.6406 49.5 30.5078C49.5 29.3984 49.8887 28.543 50.666 27.9414C51.4473 27.3398 52.3633 27.0391 53.4141 27.0391ZM61.3535 28.0352C60.9082 28.0352 60.5117 28.1699 60.1641 28.4395C59.8203 28.7051 59.5488 28.998 59.3496 29.3184V32.9688H60.3105C60.4629 32.9688 60.5605 33.0215 60.6035 33.127C60.6465 33.2285 60.668 33.3516 60.668 33.4961C60.668 33.6133 60.6367 33.7266 60.5742 33.8359C60.5117 33.9453 60.4199 34 60.2988 34H57.4336C57.2656 34 57.1484 33.957 57.082 33.8711C57.0195 33.7812 56.9883 33.6602 56.9883 33.5078C56.9883 33.3633 57.0176 33.2383 57.0762 33.1328C57.1348 33.0234 57.2402 32.9688 57.3926 32.9688H58.1484V25.0703L56.7715 25.4336C56.7559 25.4336 56.7461 25.4355 56.7422 25.4395C56.7383 25.4434 56.7285 25.4453 56.7129 25.4453C56.5918 25.4453 56.4844 25.3926 56.3906 25.2871C56.293 25.1777 56.2441 25.0625 56.2441 24.9414C56.2441 24.7734 56.2891 24.6641 56.3789 24.6133C56.4648 24.5586 56.5723 24.5117 56.7012 24.4727L58.957 23.8223C58.9648 23.8184 58.9746 23.8164 58.9863 23.8164C59.002 23.8125 59.0195 23.8105 59.0391 23.8105C59.1211 23.8105 59.1934 23.8379 59.2559 23.8926C59.3184 23.9434 59.3496 24.0117 59.3496 24.0977V28.1172C59.5762 27.8477 59.8828 27.6016 60.2695 27.3789C60.6562 27.1523 61.0898 27.0391 61.5703 27.0391C62.3008 27.0391 62.8809 27.2539 63.3105 27.6836C63.7441 28.1133 63.9609 28.6953 63.9609 29.4297V32.9688H64.916C65.0684 32.9688 65.166 33.0215 65.209 33.127C65.2559 33.2285 65.2793 33.3516 65.2793 33.4961C65.2793 33.6133 65.2461 33.7266 65.1797 33.8359C65.1172 33.9453 65.0254 34 64.9043 34H62.0391C61.8711 34 61.7539 33.957 61.6875 33.8711C61.625 33.7812 61.5938 33.6602 61.5938 33.5078C61.5938 33.3633 61.623 33.2383 61.6816 33.1328C61.7441 33.0234 61.8516 32.9688 62.0039 32.9688H62.7715V29.5352C62.7715 29.0703 62.6523 28.7051 62.4141 28.4395C62.1797 28.1699 61.8262 28.0352 61.3535 28.0352ZM67.875 25.6387C67.6289 25.6387 67.418 25.5527 67.2422 25.3809C67.0703 25.2051 66.9844 24.9941 66.9844 24.748C66.9844 24.502 67.0703 24.293 67.2422 24.1211C67.418 23.9453 67.6289 23.8574 67.875 23.8574C68.1211 23.8574 68.3301 23.9453 68.502 24.1211C68.6738 24.293 68.7598 24.502 68.7598 24.748C68.7598 24.9941 68.6738 25.2051 68.502 25.3809C68.3301 25.5527 68.1211 25.6387 67.875 25.6387ZM66.0703 33.5137C66.0703 33.3691 66.1055 33.2461 66.1758 33.1445C66.25 33.0391 66.3633 32.9863 66.5156 32.9863H67.3184V28.2402L66.4805 28.4688C66.4727 28.4727 66.4609 28.4766 66.4453 28.4805C66.4336 28.4805 66.418 28.4805 66.3984 28.4805C66.2812 28.4805 66.1719 28.4336 66.0703 28.3398C65.9688 28.2422 65.918 28.1328 65.918 28.0117C65.918 27.8867 65.9453 27.7812 66 27.6953C66.0586 27.6055 66.1426 27.5469 66.252 27.5195L68.127 27.0508C68.1387 27.0469 68.1523 27.0449 68.168 27.0449C68.1836 27.041 68.2012 27.0391 68.2207 27.0391C68.3066 27.0391 68.377 27.0645 68.4316 27.1152C68.4902 27.1621 68.5195 27.2285 68.5195 27.3145V32.9863H69.4219C69.5703 32.9863 69.6777 33.041 69.7441 33.1504C69.8105 33.2559 69.8438 33.3809 69.8438 33.5254C69.8438 33.6543 69.8047 33.7656 69.7266 33.8594C69.6523 33.9531 69.5469 34 69.4102 34H66.5508C66.3867 34 66.2656 33.957 66.1875 33.8711C66.1094 33.7812 66.0703 33.6621 66.0703 33.5137ZM75.5156 25.7324C75.3711 25.7324 75.2461 25.6973 75.1406 25.627C75.0352 25.5527 74.9824 25.4395 74.9824 25.2871V24.8828C74.3613 24.9375 73.9395 25.1094 73.7168 25.3984C73.4941 25.6875 73.3828 26.1504 73.3828 26.7871C73.3828 26.8262 73.3828 26.8652 73.3828 26.9043C73.3867 26.9434 73.3887 26.9824 73.3887 27.0215L73.4004 27.4258H74.6836C74.832 27.4258 74.9395 27.4805 75.0059 27.5898C75.0723 27.6953 75.1055 27.8203 75.1055 27.9648C75.1055 28.0938 75.0664 28.209 74.9883 28.3105C74.9141 28.4082 74.8086 28.457 74.6719 28.457H73.3887L73.4004 32.9688H74.877C75.0254 32.9688 75.1328 33.0234 75.1992 33.1328C75.2656 33.2383 75.2988 33.3633 75.2988 33.5078C75.2988 33.6367 75.2598 33.752 75.1816 33.8535C75.1074 33.9512 75.002 34 74.8652 34H70.9395C70.7754 34 70.6543 33.9531 70.5762 33.8594C70.498 33.7656 70.459 33.6445 70.459 33.4961C70.459 33.3516 70.4941 33.2285 70.5645 33.127C70.6387 33.0215 70.752 32.9688 70.9043 32.9688H72.1992V28.457H71.1562C70.9922 28.457 70.8711 28.4102 70.793 28.3164C70.7148 28.2227 70.6758 28.1016 70.6758 27.9531C70.6758 27.8086 70.7109 27.6855 70.7812 27.584C70.8555 27.4785 70.9688 27.4258 71.1211 27.4258H72.1992V26.8105C72.1992 25.7832 72.4922 25.0273 73.0781 24.543C73.6641 24.0547 74.4805 23.8105 75.5273 23.8105C75.6562 23.8105 75.7695 23.8496 75.8672 23.9277C75.9688 24.002 76.0195 24.1074 76.0195 24.2441V25.252C76.0195 25.416 75.9727 25.5371 75.8789 25.6152C75.7852 25.6934 75.6641 25.7324 75.5156 25.7324ZM79.6992 27.8535C79.6992 27.998 79.666 28.125 79.5996 28.2344C79.5332 28.3438 79.4258 28.3984 79.2773 28.3984H78.5742L80.6133 32.7754L82.2305 28.3984H81.5508C81.4023 28.3984 81.2949 28.3438 81.2285 28.2344C81.1621 28.125 81.1289 27.998 81.1289 27.8535C81.1289 27.7246 81.166 27.6113 81.2402 27.5137C81.3184 27.4121 81.4258 27.3613 81.5625 27.3613H83.9238C84.0918 27.3613 84.2129 27.4082 84.2871 27.502C84.3652 27.5957 84.4043 27.7168 84.4043 27.8652C84.4043 28.0098 84.3672 28.1348 84.293 28.2402C84.2227 28.3457 84.1113 28.3984 83.959 28.3984H83.2734L80.8418 34.709C80.6309 35.2051 80.3457 35.7871 79.9863 36.4551C79.6309 37.123 79.084 37.457 78.3457 37.457C78.1113 37.457 77.9277 37.3926 77.7949 37.2637C77.666 37.1348 77.6016 36.9922 77.6016 36.8359C77.6016 36.6914 77.6504 36.543 77.748 36.3906C77.8496 36.2383 78.0254 36.1602 78.2754 36.1562C78.6035 36.1562 78.8867 36.0371 79.125 35.7988C79.3633 35.5605 79.5469 35.2852 79.6758 34.9727L80.0508 34.0352C80.0312 34.0352 79.9805 33.957 79.8984 33.8008C79.8203 33.6406 79.7734 33.543 79.7578 33.5078L77.25 28.3984H76.541C76.3887 28.3984 76.2773 28.3457 76.207 28.2402C76.1367 28.1348 76.1016 28.0098 76.1016 27.8652C76.1016 27.7168 76.1406 27.5957 76.2188 27.502C76.2969 27.4082 76.418 27.3613 76.582 27.3613H79.2656C79.4023 27.3613 79.5078 27.4121 79.582 27.5137C79.6602 27.6113 79.6992 27.7246 79.6992 27.8535Z" fill="#F47B55"/>
</g>
<defs>
<clipPath id="clip0_1_2">
<rect width="100" height="100" fill="white"/>
</clipPath>
</defs>
</svg>
