<svg width="200" height="200" viewBox="0 0 100 100" fill="none" xmlns="http://www.w3.org/2000/svg">
<style>
    #paper {
        animation: paperAnim 8s infinite;
    }

    @keyframes paperAnim {
        0% {transform: translateY(0px);}
        10% {transform: translateY(-36px);}
        30% {transform: translateY(-30px);}
        50% {transform: translateY(-36px);}
        70% {transform: translateY(-30px);}
        80% {transform: translateY(-36px);}
        100% {transform: translateY(0px);}
    }
</style>
<g id="graphic-email-verify">
<g id="backofenvelope">
<path id="envolope" d="M94.1693 42H5.13218L49.3693 3.86397C49.7397 3.54472 50.2866 3.54007 50.6623 3.85297L94.7009 40.5309C94.8904 40.6888 95 40.9226 95 41.1693C95 41.6281 94.6281 42 94.1693 42Z" fill="#BCDBF2" stroke="#9BB9CE" stroke-width="2"/>
<path id="envolope_2" d="M4 43.9219C4 44.1901 4.1168 44.445 4.31993 44.6201L48.7164 82.8934C49.4571 83.5319 50.5508 83.5412 51.3022 82.9154L95.3409 46.2375C95.7585 45.8897 96 45.3742 96 44.8307V44.8307C96 43.8197 95.1804 43 94.1693 43H4.92185C4.41273 43 4 43.4127 4 43.9219V43.9219Z" fill="#708798"/>
</g>
<g id="paper">
<path id="Rectangle 1" d="M87 97H13V39H67.3361L77.1297 51.0691L87 63.2327V97Z" fill="white" stroke="#9BB9CE" stroke-width="2"/>
<ellipse id="Ellipse 1" cx="48.3714" cy="65.8947" rx="19" ry="18.4211" fill="#44C417"/>
<g id="Union">
<path fill-rule="evenodd" clip-rule="evenodd" d="M44.4332 68.003L39.5253 63.2447L34.9191 67.7106L44.0405 76.5541L44.4381 76.1686L44.8349 76.5541L61.5373 60.3607L56.931 55.8947L44.4332 68.003Z" fill="white"/>
<path fill-rule="evenodd" clip-rule="evenodd" d="M44.4332 68.003L39.5253 63.2447L34.9191 67.7106L44.0405 76.5541L44.4381 76.1686L44.8349 76.5541L61.5373 60.3607L56.931 55.8947L44.4332 68.003Z" fill="white"/>
</g>
</g>
<g id="envelope">
<path id="envolope_3" d="M95 41.493V96C95 96.5523 94.5523 97 94 97H6C5.44772 97 5 96.5523 5 96V41.493C5 40.72 5.83956 40.2393 6.5062 40.6306L48.4814 65.2682C49.419 65.8185 50.581 65.8185 51.5186 65.2682L93.4938 40.6306C94.1604 40.2393 95 40.72 95 41.493Z" fill="#BCDBF2" stroke="#9BB9CE" stroke-width="2"/>
<path id="envolope_4" d="M94.1693 97H5.13218L49.3693 58.864C49.7397 58.5447 50.2866 58.5401 50.6623 58.853L94.7009 95.5309C94.8904 95.6888 95 95.9226 95 96.1693C95 96.6281 94.6281 97 94.1693 97Z" fill="#BCDBF2" stroke="#9BB9CE" stroke-width="2"/>
</g>
</g>
</svg>
