<svg width="50" height="50" viewBox="0 0 50 50" fill="none" xmlns="http://www.w3.org/2000/svg">
<g id="icon-save-outline" clip-path="url(#clip0_114_2)">
<path id="Rectangle 81" d="M6 42L6 10H2L2 42H6Z" fill="#646161"/>
<path id="Rectangle 83" d="M48 42V10H44V42H48Z" fill="#646161"/>
<path id="Rectangle 82" d="M10 6H40V2H10V6Z" fill="#646161"/>
<path id="Vector 14" d="M46 10C46 6 43.5 4 40 4" stroke="#646161" stroke-width="4"/>
<path id="Vector 22" d="M4 10C4 6 6.5 4 10 4" stroke="#646161" stroke-width="4"/>
<path id="Vector 15" d="M4 42C4 48 7 55.5 21 33" stroke="#646161" stroke-width="4"/>
<path id="Vector 21" d="M46 42C46 48 42.5 56 29 33" stroke="#646161" stroke-width="4"/>
<path id="Vector 20" d="M21 33C22.3333 30.8333 26 28 29 33" stroke="#646161" stroke-width="4"/>
</g>
<defs>
<clipPath id="clip0_114_2">
<rect width="50" height="50" fill="white"/>
</clipPath>
</defs>
</svg>
