<svg width="50" height="50" viewBox="0 0 50 50" fill="none" xmlns="http://www.w3.org/2000/svg">
<g id="icon-filter-outline">
<path id="Rectangle 76" d="M37 9C37 10.1046 37.8954 11 39 11H46C47.1046 11 48 10.1046 48 9V8C48 6.89543 47.1046 6 46 6H39C37.8954 6 37 6.89543 37 8V9Z" fill="#646161"/>
<path id="Rectangle 80" d="M2 9C2 10.1046 2.89543 11 4 11H27C28.1046 11 29 10.1046 29 9V8C29 6.89543 28.1046 6 27 6H4C2.89543 6 2 6.89543 2 8V9Z" fill="#646161"/>
<path id="Rectangle 84" d="M21 25C21 26.1046 21.8954 27 23 27H46C47.1046 27 48 26.1046 48 25V24C48 22.8954 47.1046 22 46 22H23C21.8954 22 21 22.8954 21 24V25Z" fill="#646161"/>
<circle id="Ellipse 8" cx="33" cy="9" r="5.5" stroke="#646161" stroke-width="3"/>
<path id="Rectangle 81" d="M31 41C31 42.1046 31.8954 43 33 43H46C47.1046 43 48 42.1046 48 41V40C48 38.8954 47.1046 38 46 38H33C31.8954 38 31 38.8954 31 40V41Z" fill="#646161"/>
<path id="Rectangle 82" d="M2 41C2 42.1046 2.89543 43 4 43H20C21.1046 43 22 42.1046 22 41V40C22 38.8954 21.1046 38 20 38H4C2.89543 38 2 38.8954 2 40V41Z" fill="#646161"/>
<circle id="Ellipse 9" cx="26" cy="41" r="5.5" stroke="#646161" stroke-width="3"/>
<path id="Rectangle 83" d="M2 25C2 26.1046 2.89543 27 4 27H11C12.1046 27 13 26.1046 13 25V24C13 22.8954 12.1046 22 11 22H4C2.89543 22 2 22.8954 2 24V25Z" fill="#646161"/>
<circle id="Ellipse 10" cx="17" cy="25" r="5.5" stroke="#646161" stroke-width="3"/>
</g>
</svg>
