<svg width="50" height="50" viewBox="0 0 50 50" fill="none" xmlns="http://www.w3.org/2000/svg">
<g id="icon-edit-outline">
<path id="Rectangle 66" d="M9 2H29C30.1046 2 31 2.89543 31 4C31 5.10457 30.1046 6 29 6H9V2Z" fill="#646161"/>
<path id="Rectangle 70" d="M10 38C10 36.8954 10.8954 36 12 36H38C39.1046 36 40 36.8954 40 38C40 39.1046 39.1046 40 38 40H12C10.8954 40 10 39.1046 10 38Z" fill="#646161"/>
<path id="Rectangle 69" d="M44 41V21C44 19.8954 44.8954 19 46 19C47.1046 19 48 19.8954 48 21V41H44Z" fill="#646161"/>
<rect id="Rectangle 67" x="9" y="44" width="32" height="4" fill="#646161"/>
<rect id="Rectangle 68" x="2" y="41" width="32" height="4" transform="rotate(-90 2 41)" fill="#646161"/>
<path id="Vector 9" d="M4 9.5C4 6.5 6.5 4 9.5 4" stroke="#646161" stroke-width="4"/>
<path id="Vector 10" d="M4 40.5C4 43.5 6.5 46 9.5 46" stroke="#646161" stroke-width="4"/>
<path id="Vector 11" d="M46 40.5C46 43.5 43.5 46 40.5 46" stroke="#646161" stroke-width="4"/>
<g id="pen">
<path id="Rectangle 70_2" d="M19.6569 23.3293L37.3345 5.65165L40.1629 8.48007L22.4853 26.1577L19.6569 23.3293Z" fill="#646161"/>
<path id="Rectangle 72" d="M21.7782 21.208L29.5563 28.9862L27.435 31.1075L19.6569 23.3293L21.7782 21.208Z" fill="#646161"/>
<path id="Rectangle 71" d="M24.6066 28.2791L42.2843 10.6014L45.1127 13.4298L27.435 31.1075L24.6066 28.2791Z" fill="#646161"/>
<path id="Vector 12" d="M38.7487 7.06587C42.2843 3.53033 47.234 8.48008 43.6985 12.0156" stroke="#646161" stroke-width="4"/>
<path id="Polygon 1" d="M16.8854 33.8789L19.6569 23.3293L22.4853 26.1577L21.4645 29.2998L24.6066 28.2791L27.435 31.1075L16.8854 33.8789Z" fill="#646161"/>
</g>
</g>
</svg>
