<svg width="50" height="50" viewBox="0 0 50 50" fill="none" xmlns="http://www.w3.org/2000/svg">
<g id="icon-report-outline">
<path id="Rectangle 81" d="M8 48C9.10457 48 10 47.1046 10 46V5C10 3.89543 9.10457 3 8 3V3C6.89543 3 6 3.89543 6 5V46C6 47.1046 6.89543 48 8 48V48Z" fill="#646161"/>
<path id="Rectangle 82" d="M45 31C46.1046 31 47 30.1046 47 29V12C47 10.8954 46.1046 10 45 10V10C43.8954 10 43 10.8954 43 12V29C43 30.1046 43.8954 31 45 31V31Z" fill="#646161"/>
<circle id="Ellipse 20" cx="8" cy="6" r="4" fill="#646161"/>
<path id="Vector 23" d="M8 11C10.8333 13.3333 18.6 16.6 27 11" stroke="#646161" stroke-width="4"/>
<path id="Vector 25" d="M26 11.5C29.5 9.5 35 6.5 45 12.092" stroke="#646161" stroke-width="4"/>
<path id="Vector 26" d="M26 29.5C30 27.5 35.5 23.408 45 29" stroke="#646161" stroke-width="4"/>
<path id="Vector 24" d="M8 29C10.8333 31.3333 18.6 34.6 27 29" stroke="#646161" stroke-width="4"/>
</g>
</svg>
