<svg width="50" height="50" viewBox="0 0 50 50" fill="none" xmlns="http://www.w3.org/2000/svg">
<g id="icon-view-outline">
<path id="Ellipse 15" d="M46.6126 26.2249C43.8885 29.854 41.3853 32.7452 38.1575 34.7667C34.9762 36.759 30.933 38 25 38C19.0504 38 14.768 36.6423 11.4193 34.5409C8.04209 32.4216 5.47425 29.4594 3.08443 26.015C2.66104 25.4048 2.66104 24.5952 3.08443 23.985C5.47425 20.5406 8.04209 17.5784 11.4193 15.4591C14.768 13.3577 19.0504 12 25 12C30.8794 12 34.9107 13.3254 38.0968 15.3742C41.3392 17.4591 43.8444 20.3747 46.5761 23.8562C47.1252 24.556 47.1333 25.5312 46.6126 26.2249Z" stroke="#ffffff" stroke-width="4"/>
<circle id="Ellipse 16" cx="25" cy="25" r="10" stroke="#ffffff" stroke-width="4"/>
</g>
</svg>
