<svg width="50" height="50" viewBox="0 0 50 50" fill="none" xmlns="http://www.w3.org/2000/svg">
<g id="icon-save-outline">
<path id="Rectangle 81" d="M8 42L8 10H4L4 42H8Z" fill="#646161"/>
<path id="Rectangle 83" d="M46 42V10H42V42H46Z" fill="#646161"/>
<path id="Rectangle 82" d="M11 6H39V2H11V6Z" fill="#646161"/>
<path id="Vector 14" d="M44 10C44 6 41.9167 4 39 4" stroke="#646161" stroke-width="4"/>
<path id="Vector 22" d="M6 10C6 6 8.08333 4 11 4" stroke="#646161" stroke-width="4"/>
<path id="Vector 15" d="M6 41.8845C6 47.8075 8.64706 55.2113 21 33" stroke="#646161" stroke-width="4"/>
<path id="Vector 21" d="M44 41.7786C44 47.631 40.9118 55.4343 29 33" stroke="#646161" stroke-width="4"/>
<path id="Vector 20" d="M21 33C22.3333 30.6665 26 27.6149 29 33" stroke="#646161" stroke-width="4"/>
</g>
</svg>
