<svg width="50" height="50" viewBox="0 0 50 50" fill="none" xmlns="http://www.w3.org/2000/svg">
<g id="icon-tags" clip-path="url(#clip0_2_32)">
<path id="Rectangle 10" d="M3.78109 28.3108L24.2249 7.86699C24.6317 7.46018 25.194 7.24826 25.7681 7.28537L35.4088 7.90842C35.8788 7.9388 36.3231 8.13411 36.6632 8.45994L41.2145 12.8193C41.5492 13.1399 41.7621 13.5668 41.817 14.027L43.0881 24.6942C43.1607 25.303 42.9499 25.9115 42.5164 26.3451L22.1659 46.6956C21.3848 47.4766 20.1185 47.4766 19.3374 46.6956L3.78109 31.1392C3.00004 30.3582 3.00004 29.0918 3.78109 28.3108Z" stroke="#646161" stroke-width="4"/>
<circle id="Ellipse 1" cx="32" cy="18" r="3.5" stroke="#646161" stroke-width="3"/>
<path id="Vector 1" d="M34 15C34.6667 10.3333 38.2 1.40001 47 3.00001" stroke="#646161" stroke-width="3"/>
</g>
<defs>
<clipPath id="clip0_2_32">
<rect width="50" height="50" fill="white"/>
</clipPath>
</defs>
</svg>
