<svg width="50" height="50" viewBox="0 0 50 50" fill="none" xmlns="http://www.w3.org/2000/svg">
<g id="icon-day" clip-path="url(#clip0_0_3)">
<circle id="Ellipse 1" cx="25" cy="25" r="10" stroke="#ffffff" stroke-width="4"/>
<rect id="Rectangle 2" width="4" height="12" rx="2" transform="matrix(1 0 0 -1 23 50)" fill="#ffffff"/>
<rect id="Rectangle 3" x="23" width="4" height="12" rx="2" fill="#ffffff"/>
<rect id="Rectangle 8" x="42.4853" y="5" width="4" height="12" rx="2" transform="rotate(45 42.4853 5)" fill="#ffffff"/>
<rect id="Rectangle 9" x="13.4853" y="33" width="4" height="12" rx="2" transform="rotate(45 13.4853 33)" fill="#ffffff"/>
<rect id="Rectangle 4" width="4" height="12" rx="2" transform="matrix(0 -1 -1 0 50 27)" fill="#ffffff"/>
<rect id="Rectangle 5" width="4" height="12" rx="2" transform="matrix(0 -1 -1 0 12 27)" fill="#ffffff"/>
<rect id="Rectangle 6" width="4" height="12" rx="2" transform="matrix(0.707107 -0.707107 -0.707107 -0.707107 13.4853 16.3137)" fill="#ffffff"/>
<rect id="Rectangle 7" width="4" height="12" rx="2" transform="matrix(0.707107 -0.707107 -0.707107 -0.707107 42.4853 44.3137)" fill="#ffffff"/>
</g>
<defs>
<clipPath id="clip0_0_3">
<rect width="50" height="50" fill="white"/>
</clipPath>
</defs>
</svg>
