<svg width="50" height="50" viewBox="0 0 50 50" fill="none" xmlns="http://www.w3.org/2000/svg">
<g id="icon-morning">
<rect id="Rectangle 13" width="4" height="12" rx="2" transform="matrix(1 0 0 -1 23 16)" fill="#ffffff"/>
<rect id="Rectangle 8" x="44.4853" y="12" width="4" height="12" rx="2" transform="rotate(45 44.4853 12)" fill="#ffffff"/>
<rect id="Rectangle 6" width="4" height="12" rx="2" transform="matrix(0.707107 -0.707107 -0.707107 -0.707107 11.4853 23.3137)" fill="#ffffff"/>
<rect id="Rectangle 9" x="2" y="32" width="46" height="3" rx="1.5" fill="#ffffff"/>
<rect id="Rectangle 12" x="9" y="37" width="32" height="3" rx="1.5" fill="#ffffff"/>
<path id="Subtract" fill-rule="evenodd" clip-rule="evenodd" d="M35 32H39C39 24.268 32.732 18 25 18C17.268 18 11 24.268 11 32H15C15 26.4772 19.4772 22 25 22C30.5228 22 35 26.4772 35 32Z" fill="#ffffff"/>
</g>
</svg>
