<svg width="50" height="50" viewBox="0 0 50 50" fill="none" xmlns="http://www.w3.org/2000/svg">
<g id="icon-list-outline">
<path id="Rectangle 81" d="M6 42L6 8H2L2 42H6Z" fill="#646161"/>
<path id="Rectangle 83" d="M48 42V8H44V42H48Z" fill="#646161"/>
<path id="Rectangle 82" d="M8 6H42V2H8V6Z" fill="#646161"/>
<path id="Rectangle 94" d="M10 10.5C10 11.3284 10.6716 12 11.5 12H38.5C39.3284 12 40 11.3284 40 10.5V10.5C40 9.67157 39.3284 9 38.5 9H11.5C10.6716 9 10 9.67157 10 10.5V10.5Z" fill="#646161"/>
<path id="Rectangle 95" d="M10 16.5C10 17.3284 10.6716 18 11.5 18H26.5C27.3284 18 28 17.3284 28 16.5V16.5C28 15.6716 27.3284 15 26.5 15H11.5C10.6716 15 10 15.6716 10 16.5V16.5Z" fill="#646161"/>
<path id="Rectangle 96" d="M10 22.5C10 23.3284 10.6716 24 11.5 24H22.5C23.3284 24 24 23.3284 24 22.5V22.5C24 21.6716 23.3284 21 22.5 21H11.5C10.6716 21 10 21.6716 10 22.5V22.5Z" fill="#646161"/>
<path id="Rectangle 97" d="M10 28.5C10 29.3284 10.6716 30 11.5 30H38.5C39.3284 30 40 29.3284 40 28.5V28.5C40 27.6716 39.3284 27 38.5 27H11.5C10.6716 27 10 27.6716 10 28.5V28.5Z" fill="#646161"/>
<path id="Rectangle 98" d="M10 34.5C10 35.3284 10.6716 36 11.5 36H26.5C27.3284 36 28 35.3284 28 34.5V34.5C28 33.6716 27.3284 33 26.5 33H11.5C10.6716 33 10 33.6716 10 34.5V34.5Z" fill="#646161"/>
<path id="Rectangle 99" d="M10 40.5C10 41.3284 10.6716 42 11.5 42H22.5C23.3284 42 24 41.3284 24 40.5V40.5C24 39.6716 23.3284 39 22.5 39H11.5C10.6716 39 10 39.6716 10 40.5V40.5Z" fill="#646161"/>
<path id="Rectangle 84" d="M8 48H42V44H8V48Z" fill="#646161"/>
<path id="Vector 13" d="M4 8.5C4 6 6 4 8.5 4" stroke="#646161" stroke-width="4"/>
<path id="Vector 14" d="M46 8.5C46 6 44 4 41.5 4" stroke="#646161" stroke-width="4"/>
<path id="Vector 16" d="M46 41.5C46 44 44 46 41.5 46" stroke="#646161" stroke-width="4"/>
<path id="Vector 15" d="M4 41.5C4 44 6 46 8.5 46" stroke="#646161" stroke-width="4"/>
</g>
</svg>
