<svg width="50" height="50" viewBox="0 0 50 50" fill="none" xmlns="http://www.w3.org/2000/svg">
<g id="icon-house-outline">
<path id="Rectangle 80" d="M12 44L12 20H8L8 44H12Z" fill="#646161"/>
<path id="Rectangle 81" d="M42 45V20H38V45H42Z" fill="#646161"/>
<path id="Rectangle 82" d="M8 44H22V48H8V44Z" fill="#646161"/>
<path id="Rectangle 86" d="M18 48V32H22V48H18Z" fill="#646161"/>
<path id="Rectangle 87" d="M28 48V32H32V48H28Z" fill="#646161"/>
<path id="Rectangle 85" d="M28 44H42V48H28V44Z" fill="#646161"/>
<path id="Rectangle 88" d="M18 32H32V36H18V32Z" fill="#646161"/>
<path id="Rectangle 83" d="M3.82843 28.8003L27.8003 4.82842L24.9719 1.99999L1 25.9719L3.82843 28.8003Z" fill="#646161"/>
<path id="Rectangle 84" d="M45.7747 28.4689L22.2459 4.94005L25.0743 2.11162L48.6032 25.6404L45.7747 28.4689Z" fill="#646161"/>
</g>
</svg>
