<svg width="50" height="50" viewBox="0 0 50 50" fill="none" xmlns="http://www.w3.org/2000/svg">
<g id="icon-myrecipes-outline">
<path id="Rectangle 81" d="M6 42L6 8H2L2 42H6Z" fill="#646161"/>
<path id="Rectangle 83" d="M48 37V8H44V37H48Z" fill="#646161"/>
<path id="Rectangle 82" d="M8 6H42V2H8V6Z" fill="#646161"/>
<path id="Rectangle 85" d="M8 39L8 5H12L12 39H8Z" fill="#646161"/>
<path id="Rectangle 87" d="M43 48V35H47V48H43Z" fill="#646161"/>
<path id="Rectangle 84" d="M8 48H48V44H8V48Z" fill="#646161"/>
<path id="Rectangle 86" d="M8 39H48V35H8V39Z" fill="#646161"/>
<path id="Vector 14" d="M46 8.5C46 6 44 4 41.5 4" stroke="#646161" stroke-width="4"/>
<path id="Vector 15" d="M4 8.5C4 6 6 4 8.5 4" stroke="#646161" stroke-width="4"/>
<path id="Vector 16" d="M4 42C4 44.5 6 46 8.5 46" stroke="#646161" stroke-width="4"/>
<path id="Vector 17" d="M4 41C4 38.5 6 37 8.5 37" stroke="#646161" stroke-width="4"/>
<circle id="Ellipse 13" cx="27.5" cy="15.5" r="6" stroke="#646161" stroke-width="3"/>
<path id="Vector 19" d="M15 35C15.5 22 40 22 40 35" stroke="#646161" stroke-width="3"/>
</g>
</svg>
