<svg width="50" height="50" viewBox="0 0 50 50" fill="none" xmlns="http://www.w3.org/2000/svg">
<g id="icon-upload-outline">
<rect id="Rectangle 27" x="40.9843" y="46.0126" width="2" height="34" rx="1" transform="rotate(90.0426 40.9843 46.0126)" fill="#646161"/>
<rect id="Rectangle 30" x="41.0036" y="20.0126" width="2" height="6" rx="1" transform="rotate(90.0426 41.0036 20.0126)" fill="#646161"/>
<rect id="Rectangle 31" x="13.0036" y="19.9917" width="2" height="6" rx="1" transform="rotate(90.0426 13.0036 19.9917)" fill="#646161"/>
<rect id="Rectangle 28" width="2" height="20" rx="1" transform="matrix(1 0.00074421 0.00074421 -1 42.9858 44.0141)" fill="#646161"/>
<rect id="Rectangle 32" width="2" height="31" rx="1" transform="matrix(1 0.00074421 0.00074421 -1 22.9925 34.9992)" fill="#646161"/>
<rect id="Rectangle 34" width="2" height="13.9347" rx="1" transform="matrix(0.70658 0.707633 0.707633 -0.70658 14.2335 11.9042)" fill="#646161"/>
<rect id="Rectangle 35" x="34.0098" y="11.7079" width="2" height="13.7187" rx="1" transform="rotate(135.043 34.0098 11.7079)" fill="#646161"/>
<rect id="Rectangle 29" width="2" height="20" rx="1" transform="matrix(1 0.00074421 0.00074421 -1 2.98578 43.9843)" fill="#646161"/>
<path id="Vector 5" d="M40.0029 21.0118C41.3361 21.1795 44.002 22.2148 43.9999 25.0148" stroke="#646161" stroke-width="2"/>
<path id="Vector 6" d="M8.0029 20.988C6.66944 21.1537 4.00201 22.185 3.99992 24.985" stroke="#646161" stroke-width="2"/>
<path id="Vector 7" d="M39.9835 47.0118C41.317 46.8461 43.9844 45.8148 43.9865 43.0148" stroke="#646161" stroke-width="2"/>
<path id="Vector 8" d="M7.98354 46.988C6.65033 46.8203 3.98444 45.785 3.98652 42.985" stroke="#646161" stroke-width="2"/>
</g>
</svg>
