<svg width="50" height="50" viewBox="0 0 50 50" fill="none" xmlns="http://www.w3.org/2000/svg">
<g id="icon-sort-outline">
<path id="Rectangle 80" d="M15.5 48C16.8807 48 18 46.8807 18 45.5L18 4.5C18 3.11929 16.8807 2 15.5 2V2C14.1193 2 13 3.11929 13 4.5L13 45.5C13 46.8807 14.1193 48 15.5 48V48Z" fill="#646161"/>
<path id="Rectangle 83" d="M35 27.5C35 28.8807 36.1193 30 37.5 30H45.5C46.8807 30 48 28.8807 48 27.5V27.5C48 26.1193 46.8807 25 45.5 25H37.5C36.1193 25 35 26.1193 35 27.5V27.5Z" fill="#646161"/>
<path id="Rectangle 84" d="M29 17.5C29 18.8807 30.1193 20 31.5 20H45.5C46.8807 20 48 18.8807 48 17.5V17.5C48 16.1193 46.8807 15 45.5 15H31.5C30.1193 15 29 16.1193 29 17.5V17.5Z" fill="#646161"/>
<path id="Rectangle 85" d="M23 7.5C23 8.88071 24.1193 10 25.5 10H45.5C46.8807 10 48 8.88071 48 7.5V7.5C48 6.11929 46.8807 5 45.5 5H25.5C24.1193 5 23 6.11929 23 7.5V7.5Z" fill="#646161"/>
<path id="Rectangle 81" d="M13.7678 47.1525C14.7441 48.1289 16.327 48.1289 17.3033 47.1525L27.9099 36.5459C28.8862 35.5696 28.8862 33.9867 27.9099 33.0104V33.0104C26.9336 32.0341 25.3507 32.0341 24.3744 33.0104L13.7678 43.617C12.7915 44.5933 12.7915 46.1762 13.7678 47.1525V47.1525Z" fill="#646161"/>
<path id="Rectangle 82" d="M16.9099 46.9099C15.9336 47.8862 14.3507 47.8862 13.3744 46.9099L2.76777 36.3033C1.79146 35.327 1.79146 33.7441 2.76777 32.7678V32.7678C3.74408 31.7915 5.32699 31.7915 6.3033 32.7678L16.9099 43.3744C17.8862 44.3507 17.8862 45.9336 16.9099 46.9099V46.9099Z" fill="#646161"/>
</g>
</svg>
