<svg width="50" height="50" viewBox="0 0 50 50" fill="none" xmlns="http://www.w3.org/2000/svg">
<g id="icon-house-outline">
<rect id="Rectangle 5" x="7" y="25" width="2" height="23" rx="1" fill="#646161"/>
<rect id="Rectangle 12" x="23.5827" y="1.99689" width="2" height="34.7838" rx="1" transform="rotate(-45 23.5827 1.99689)" fill="#646161"/>
<rect id="Rectangle 13" width="2" height="33.8667" rx="1" transform="matrix(0.707107 0.707107 0.707107 -0.707107 1 24.4754)" fill="#646161"/>
<rect id="Rectangle 6" x="41" y="25" width="2" height="23" rx="1" fill="#646161"/>
<rect id="Rectangle 7" x="4" y="48" width="2" height="16" rx="1" transform="rotate(-90 4 48)" fill="#646161"/>
<rect id="Rectangle 9" x="18" y="31" width="2" height="17" rx="1" fill="#646161"/>
<rect id="Rectangle 10" x="30" y="31" width="2" height="17" rx="1" fill="#646161"/>
<path id="Rectangle 14" d="M41 10C41 9.44772 41.4477 9 42 9V9C42.5523 9 43 9.44772 43 10V19H41V10Z" fill="#646161"/>
<path id="Rectangle 15" d="M36 10C36 9.44772 36.4477 9 37 9V9C37.5523 9 38 9.44772 38 10V14H36V10Z" fill="#646161"/>
<path id="Rectangle 16" d="M37 11C36.4477 11 36 10.5523 36 10C36 9.44772 36.4477 9 37 9H42C42.5523 9 43 9.44772 43 10C43 10.5523 42.5523 11 42 11H37Z" fill="#646161"/>
<rect id="Rectangle 11" x="18" y="33" width="2" height="14" rx="1" transform="rotate(-90 18 33)" fill="#646161"/>
<rect id="Rectangle 8" width="2" height="16" rx="1" transform="matrix(0 1 1 0 30 46)" fill="#646161"/>
</g>
</svg>
