<svg width="50" height="50" viewBox="0 0 50 50" fill="none" xmlns="http://www.w3.org/2000/svg">
<g id="icon-planner-outline">
<rect id="Rectangle 5" x="3" y="6" width="2" height="41" rx="1" fill="#646161"/>
<rect id="Rectangle 9" x="6" y="3" width="3" height="5" rx="1.5" fill="#646161"/>
<rect id="Rectangle 28" x="41" y="3" width="3" height="5" rx="1.5" fill="#646161"/>
<rect id="Rectangle 12" x="11" y="3" width="3" height="5" rx="1.5" fill="#646161"/>
<rect id="Rectangle 29" x="36" y="3" width="3" height="5" rx="1.5" fill="#646161"/>
<rect id="Rectangle 7" x="3" y="47" width="2" height="24" rx="1" transform="rotate(-90 3 47)" fill="#646161"/>
<rect id="Rectangle 8" x="3" y="8" width="2" height="44" rx="1" transform="rotate(-90 3 8)" fill="#646161"/>
<rect id="Rectangle 6" x="45" y="6" width="2" height="18" rx="1" fill="#646161"/>
<rect id="Rectangle 27" x="7" y="11" width="26" height="6" rx="1" stroke="#666666" stroke-width="2"/>
<rect id="Rectangle 31" x="7" y="22" width="6" height="6" rx="1" stroke="#666666" stroke-width="2"/>
<rect id="Rectangle 32" x="17" y="22" width="6" height="6" rx="1" stroke="#666666" stroke-width="2"/>
<rect id="Rectangle 33" x="27" y="22" width="6" height="6" rx="1" stroke="#666666" stroke-width="2"/>
<rect id="Rectangle 39" x="37" y="22" width="6" height="6" rx="1" stroke="#666666" stroke-width="2"/>
<rect id="Rectangle 35" x="7" y="33" width="6" height="6" rx="1" stroke="#666666" stroke-width="2"/>
<rect id="Rectangle 36" x="17" y="33" width="6" height="6" rx="1" stroke="#666666" stroke-width="2"/>
<rect id="Rectangle 37" x="27" y="33" width="6" height="6" rx="1" stroke="#666666" stroke-width="2"/>
<rect id="Rectangle 38" x="37" y="33" width="6" height="6" rx="1" stroke="#666666" stroke-width="2"/>
<circle id="Ellipse 1" cx="37" cy="36" r="12" fill="white" stroke="#666666" stroke-width="2"/>
<rect id="Rectangle 20" x="35" y="39" width="2" height="8" rx="1" transform="rotate(-90 35 39)" fill="#646161"/>
<rect id="Rectangle 21" x="35" y="29" width="2" height="10" rx="1" fill="#646161"/>
<rect id="Rectangle 30" x="37" y="11" width="6" height="6" rx="1" stroke="#666666" stroke-width="2"/>
</g>
</svg>
