<svg width="50" height="50" viewBox="0 0 50 50" fill="none" xmlns="http://www.w3.org/2000/svg">
<g id="icon-logout-outline">
<rect id="Rectangle 27" x="45" y="8" width="2" height="34" rx="1" fill="#646161"/>
<rect id="Rectangle 30" x="19" y="8" width="2" height="6" rx="1" fill="#646161"/>
<rect id="Rectangle 31" x="19" y="36" width="2" height="6" rx="1" fill="#646161"/>
<rect id="Rectangle 28" width="2" height="20" rx="1" transform="matrix(0 -1 -1 0 43 6)" fill="#646161"/>
<rect id="Rectangle 32" width="2" height="31" rx="1" transform="matrix(0 -1 -1 0 34 26)" fill="#646161"/>
<rect id="Rectangle 34" width="2" height="13.9347" rx="1" transform="matrix(0.707107 -0.707107 -0.707107 -0.707107 10.9116 34.7762)" fill="#646161"/>
<rect id="Rectangle 35" x="10.7006" y="15" width="2" height="13.7187" rx="1" transform="rotate(45 10.7006 15)" fill="#646161"/>
<rect id="Rectangle 29" width="2" height="20" rx="1" transform="matrix(0 -1 -1 0 43 46)" fill="#646161"/>
<path id="Vector 5" d="M20 9C20.1667 7.66667 21.2 5 24 5" stroke="#646161" stroke-width="2"/>
<path id="Vector 6" d="M20 41C20.1667 42.3333 21.2 45 24 45" stroke="#646161" stroke-width="2"/>
<path id="Vector 7" d="M46 9C45.8333 7.66667 44.8 5 42 5" stroke="#646161" stroke-width="2"/>
<path id="Vector 8" d="M46 41C45.8333 42.3333 44.8 45 42 45" stroke="#646161" stroke-width="2"/>
</g>
</svg>
