<svg width="50" height="50" viewBox="0 0 50 50" fill="none" xmlns="http://www.w3.org/2000/svg">
<g id="icon-recipe-outline">
<rect id="Rectangle 26" x="4" y="7" width="2" height="37" rx="1" fill="#646161"/>
<rect id="Rectangle 57" x="9" y="3" width="2" height="37" rx="1" fill="#646161"/>
<rect id="Rectangle 28" x="7" y="48" width="2" height="37" rx="1" transform="rotate(-90 7 48)" fill="#646161"/>
<rect id="Rectangle 30" x="8" y="40" width="2" height="36" rx="1" transform="rotate(-90 8 40)" fill="#646161"/>
<rect id="Rectangle 52" x="14" y="32" width="2" height="20" rx="1" transform="rotate(-90 14 32)" fill="#646161"/>
<rect id="Rectangle 54" x="35.8237" y="6" width="2.44321" height="11.0011" rx="1.22161" transform="rotate(30.5456 35.8237 6)" fill="#646161"/>
<rect id="Rectangle 53" x="16" y="35" width="2" height="16" rx="1" transform="rotate(-90 16 35)" fill="#646161"/>
<rect id="Rectangle 29" x="8" y="5" width="2" height="36" rx="1" transform="rotate(-90 8 5)" fill="#646161"/>
<rect id="Rectangle 27" x="42" y="3" width="2" height="37" rx="1" fill="#646161"/>
<rect id="Rectangle 51" x="38" y="38" width="2" height="9" rx="1" fill="#646161"/>
<rect id="Rectangle 56" x="42" y="38" width="2" height="9" rx="1" fill="#646161"/>
<path id="Ellipse 5" d="M31.5658 19.0163C30.9828 19.8387 30.246 20.3822 29.5682 20.6258C28.8865 20.8707 28.361 20.7894 28.0257 20.5516C27.6904 20.3139 27.4397 19.845 27.4452 19.1206C27.4506 18.4004 27.7197 17.5252 28.3027 16.7028C28.8858 15.8804 29.6226 15.3369 30.3004 15.0933C30.9821 14.8484 31.5075 14.9297 31.8428 15.1675C32.1782 15.4052 32.4288 15.8741 32.4234 16.5984C32.4179 17.3186 32.1489 18.1939 31.5658 19.0163Z" stroke="#646161" stroke-width="2"/>
<path id="Ellipse 4" d="M34 21.1905C34 22.597 33.0758 24.0262 31.2518 25.1553C29.4432 26.2749 26.8819 27 24 27C21.1181 27 18.5568 26.2749 16.7482 25.1553C14.9242 24.0262 14 22.597 14 21.1905C14 20.4947 14.217 20.0188 14.5794 19.6483C14.9692 19.2497 15.5926 18.9087 16.5005 18.6453C18.335 18.1131 20.9471 18 24 18C27.0529 18 29.665 18.1131 31.4995 18.6453C32.4074 18.9087 33.0308 19.2497 33.4206 19.6483C33.783 20.0188 34 20.4947 34 21.1905Z" fill="white" stroke="#646161" stroke-width="2"/>
<rect id="Rectangle 55" x="10" y="44" width="2" height="30" rx="1" transform="rotate(-90 10 44)" fill="#646161"/>
<path id="Vector 1" d="M9 4C7.5 4 5 5 5 8" stroke="#646161" stroke-width="2"/>
<path id="Vector 3" d="M9 39C7.5 39 5 40 5 43" stroke="#646161" stroke-width="2"/>
<path id="Vector 4" d="M8 47C6.875 47 5 46 5 43" stroke="#646161" stroke-width="2"/>
</g>
</svg>
