<svg width="50" height="50" viewBox="0 0 50 50" fill="none" xmlns="http://www.w3.org/2000/svg">
<g id="icon-settings-outline">
<circle id="Ellipse 6" cx="25" cy="25" r="5" stroke="#646161" stroke-width="2"/>
<path id="Ellipse 7" d="M38.0022 24.9335L37.9978 25L38.0022 25.0665C38.23 28.4835 36.7484 31.8374 34.2929 34.2929C31.8374 36.7484 28.4835 38.23 25.0665 38.0022L25.0021 37.9979L24.9376 38.0019C17.5598 38.4631 11.5366 31.9847 11.9978 25.0665L12.0022 25L11.9978 24.9335C11.5366 18.0153 17.5598 11.5369 24.9376 11.998L25.0021 12.0021L25.0665 11.9978C28.4835 11.77 31.8374 13.2516 34.2929 15.7071C36.7484 18.1626 38.23 21.5165 38.0022 24.9335Z" stroke="#646161" stroke-width="2"/>
<g id="Rectangle 58">
<mask id="path-3-inside-1_103_196" fill="white">
<path d="M21 3H29V13H21V3Z"/>
</mask>
<path d="M21 3H29V13H21V3Z" fill="white"/>
<path d="M21 3V1H19V3H21ZM29 3H31V1H29V3ZM21 5H29V1H21V5ZM27 3V13H31V3H27ZM23 13V3H19V13H23Z" fill="#646161" mask="url(#path-3-inside-1_103_196)"/>
</g>
<g id="Rectangle 62">
<mask id="path-5-inside-2_103_196" fill="white">
<path d="M6 12.6569L11.6569 7.00001L18.7279 14.0711L13.0711 19.7279L6 12.6569Z"/>
</mask>
<path d="M6 12.6569L11.6569 7.00001L18.7279 14.0711L13.0711 19.7279L6 12.6569Z" fill="white"/>
<path d="M6 12.6569L4.58579 11.2426L3.17157 12.6569L4.58579 14.0711L6 12.6569ZM11.6569 7.00001L13.0711 5.58579L11.6569 4.17158L10.2426 5.58579L11.6569 7.00001ZM7.41421 14.0711L13.0711 8.41422L10.2426 5.58579L4.58579 11.2426L7.41421 14.0711ZM10.2426 8.41422L17.3137 15.4853L20.1421 12.6569L13.0711 5.58579L10.2426 8.41422ZM14.4853 18.3137L7.41421 11.2426L4.58579 14.0711L11.6569 21.1421L14.4853 18.3137Z" fill="#646161" mask="url(#path-5-inside-2_103_196)"/>
</g>
<g id="Rectangle 63">
<mask id="path-7-inside-3_103_196" fill="white">
<path d="M43.7279 12.6569L38.0711 7.00001L31 14.0711L36.6569 19.7279L43.7279 12.6569Z"/>
</mask>
<path d="M43.7279 12.6569L38.0711 7.00001L31 14.0711L36.6569 19.7279L43.7279 12.6569Z" fill="white"/>
<path d="M43.7279 12.6569L45.1421 11.2426L46.5563 12.6569L45.1421 14.0711L43.7279 12.6569ZM38.0711 7.00001L36.6569 5.58579L38.0711 4.17158L39.4853 5.58579L38.0711 7.00001ZM42.3137 14.0711L36.6569 8.41422L39.4853 5.58579L45.1421 11.2426L42.3137 14.0711ZM39.4853 8.41422L32.4142 15.4853L29.5858 12.6569L36.6569 5.58579L39.4853 8.41422ZM35.2426 18.3137L42.3137 11.2426L45.1421 14.0711L38.0711 21.1421L35.2426 18.3137Z" fill="#646161" mask="url(#path-7-inside-3_103_196)"/>
</g>
<g id="Rectangle 64">
<mask id="path-9-inside-4_103_196" fill="white">
<path d="M42.7279 38.0711L37.0711 43.7279L30 36.6568L35.6569 31L42.7279 38.0711Z"/>
</mask>
<path d="M42.7279 38.0711L37.0711 43.7279L30 36.6568L35.6569 31L42.7279 38.0711Z" fill="white"/>
<path d="M42.7279 38.0711L44.1421 39.4853L45.5563 38.0711L44.1421 36.6568L42.7279 38.0711ZM37.0711 43.7279L35.6569 45.1421L37.0711 46.5563L38.4853 45.1421L37.0711 43.7279ZM41.3137 36.6568L35.6569 42.3137L38.4853 45.1421L44.1421 39.4853L41.3137 36.6568ZM38.4853 42.3137L31.4142 35.2426L28.5858 38.0711L35.6569 45.1421L38.4853 42.3137ZM34.2426 32.4142L41.3137 39.4853L44.1421 36.6568L37.0711 29.5858L34.2426 32.4142Z" fill="#646161" mask="url(#path-9-inside-4_103_196)"/>
</g>
<g id="Rectangle 65">
<mask id="path-11-inside-5_103_196" fill="white">
<path d="M7 38.0711L12.6569 43.7279L19.7279 36.6568L14.0711 31L7 38.0711Z"/>
</mask>
<path d="M7 38.0711L12.6569 43.7279L19.7279 36.6568L14.0711 31L7 38.0711Z" fill="white"/>
<path d="M7 38.0711L5.58579 39.4853L4.17157 38.0711L5.58579 36.6568L7 38.0711ZM12.6569 43.7279L14.0711 45.1421L12.6569 46.5563L11.2426 45.1421L12.6569 43.7279ZM8.41421 36.6568L14.0711 42.3137L11.2426 45.1421L5.58579 39.4853L8.41421 36.6568ZM11.2426 42.3137L18.3137 35.2426L21.1421 38.0711L14.0711 45.1421L11.2426 42.3137ZM15.4853 32.4142L8.41421 39.4853L5.58579 36.6568L12.6569 29.5858L15.4853 32.4142Z" fill="#646161" mask="url(#path-11-inside-5_103_196)"/>
</g>
<g id="Rectangle 59">
<mask id="path-13-inside-6_103_196" fill="white">
<path d="M29 47H21V37H29V47Z"/>
</mask>
<path d="M29 47H21V37H29V47Z" fill="white"/>
<path d="M29 47V49H31V47H29ZM21 47H19V49H21V47ZM29 45H21V49H29V45ZM23 47V37H19V47H23ZM27 37V47H31V37H27Z" fill="#646161" mask="url(#path-13-inside-6_103_196)"/>
</g>
<g id="Rectangle 60">
<mask id="path-15-inside-7_103_196" fill="white">
<path d="M3 29L3 21H13V29H3Z"/>
</mask>
<path d="M3 29L3 21H13V29H3Z" fill="white"/>
<path d="M3 29H1V31H3V29ZM3 21V19H1L1 21H3ZM5 29V21H1L1 29H5ZM3 23H13V19H3V23ZM13 27H3V31H13V27Z" fill="#646161" mask="url(#path-15-inside-7_103_196)"/>
</g>
<g id="Rectangle 61">
<mask id="path-17-inside-8_103_196" fill="white">
<path d="M47 21V29H37V21H47Z"/>
</mask>
<path d="M47 21V29H37V21H47Z" fill="white"/>
<path d="M47 21H49V19H47V21ZM47 29V31H49V29H47ZM45 21V29H49V21H45ZM47 27H37V31H47V27ZM37 23H47V19H37V23Z" fill="#646161" mask="url(#path-17-inside-8_103_196)"/>
</g>
</g>
</svg>
