<svg width="50" height="50" viewBox="0 0 50 50" fill="none" xmlns="http://www.w3.org/2000/svg">
<g id="icon-ingredients">
<path id="Vector 20" d="M3.5 25C3.5 53 47 53 47 25" stroke="#ffffff" stroke-width="3"/>
<path id="Vector 21" d="M3.5 25.5C3.5 20 7.5 15 18 15" stroke="#ffffff" stroke-width="3"/>
<path id="Vector 27" d="M17 45C19.6667 41.1667 26.8 35.8 34 45" stroke="#ffffff" stroke-width="3"/>
<path id="Vector 34" d="M21.2481 13.5C17.8593 34.5 21.248 29.5 22.3593 39.5" stroke="#ffffff" stroke-width="2"/>
<path id="Vector 36" d="M30.1112 14C33.5 35 30.1112 30 29 40" stroke="#ffffff" stroke-width="2"/>
<path id="Vector 32" d="M36 16.5C35.5 20.5 47.5 24.5 33 42" stroke="#ffffff" stroke-width="2"/>
<path id="Vector 35" d="M15.1902 16C15.6902 20 3.69021 24 18.1902 41.5" stroke="#ffffff" stroke-width="2"/>
<path id="Vector 25" d="M47 25.5C47 20 43.5 15 33 15" stroke="#ffffff" stroke-width="3"/>
<path id="Vector 23" d="M18 15C23 15 20.5 8.5 21 3" stroke="#ffffff" stroke-width="3"/>
<path id="Vector 26" d="M33.193 15C28.193 15 30.5 8.5 30 3" stroke="#ffffff" stroke-width="3"/>
<rect id="Rectangle 27" x="19.5" y="1" width="12" height="3" fill="#ffffff"/>
</g>
</svg>
